<?xml version="1.0" encoding="UTF-8" standalone="no"?>
<!DOCTYPE svg PUBLIC "-//W3C//DTD SVG 1.1//EN"
 "http://www.w3.org/Graphics/SVG/1.1/DTD/svg11.dtd">
<!-- Generated by graphviz version 5.0.0 (20220707.1540)
 -->
<!-- Title: ClassDiagramSesudah Pages: 1 -->
<svg width="1662pt" height="610pt"
 viewBox="0.00 0.00 1662.23 610.00" xmlns="http://www.w3.org/2000/svg" xmlns:xlink="http://www.w3.org/1999/xlink">
<g id="graph0" class="graph" transform="scale(1 1) rotate(0) translate(4 606)">
<title>ClassDiagramSesudah</title>
<polygon fill="white" stroke="transparent" points="-4,4 -4,-606 1658.23,-606 1658.23,4 -4,4"/>
<!-- ExpressRouter -->
<g id="node1" class="node">
<title>ExpressRouter</title>
<polygon fill="none" stroke="black" points="139.02,-348.5 139.02,-384.5 339.05,-384.5 339.05,-348.5 139.02,-348.5"/>
<text text-anchor="middle" x="186.03" y="-363.5" font-family="Courier New" font-size="10.00">ExpressRouter</text>
<polyline fill="none" stroke="black" points="233.04,-348.5 233.04,-384.5 "/>
<text text-anchor="start" x="241.04" y="-363.5" font-family="Courier New" font-size="10.00">+ mountRoutes()</text>
</g>
<!-- AuthMiddleware -->
<g id="node2" class="node">
<title>AuthMiddleware</title>
<polygon fill="none" stroke="black" points="550.08,-488.5 550.08,-524.5 780.11,-524.5 780.11,-488.5 550.08,-488.5"/>
<text text-anchor="middle" x="600.09" y="-503.5" font-family="Courier New" font-size="10.00">AuthMiddleware</text>
<polyline fill="none" stroke="black" points="650.09,-488.5 650.09,-524.5 "/>
<text text-anchor="start" x="658.09" y="-509.5" font-family="Courier New" font-size="10.00">+ verifyToken()</text>
<text text-anchor="start" x="658.09" y="-497.5" font-family="Courier New" font-size="10.00">+ requireRole(role)</text>
</g>
<!-- ExpressRouter&#45;&gt;AuthMiddleware -->
<g id="edge1" class="edge">
<title>ExpressRouter&#45;&gt;AuthMiddleware</title>
<path fill="none" stroke="black" d="M339.33,-356.45C385.61,-356.85 438.96,-365.16 478.08,-394.5 510.89,-419.12 482.02,-453.89 514.08,-479.5 521.98,-485.82 530.88,-490.85 540.29,-494.84"/>
<polygon fill="black" stroke="black" points="549.85,-498.49 538.9,-499.13 545.18,-496.71 540.51,-494.93 540.51,-494.93 540.51,-494.93 545.18,-496.71 542.11,-490.72 549.85,-498.49 549.85,-498.49"/>
</g>
<!-- ValidateMiddleware -->
<g id="node3" class="node">
<title>ValidateMiddleware</title>
<polygon fill="none" stroke="black" points="541.08,-433.5 541.08,-469.5 789.11,-469.5 789.11,-433.5 541.08,-433.5"/>
<text text-anchor="middle" x="603.09" y="-448.5" font-family="Courier New" font-size="10.00">ValidateMiddleware</text>
<polyline fill="none" stroke="black" points="665.1,-433.5 665.1,-469.5 "/>
<text text-anchor="start" x="673.1" y="-448.5" font-family="Courier New" font-size="10.00">+ validate(schema)</text>
</g>
<!-- ExpressRouter&#45;&gt;ValidateMiddleware -->
<g id="edge2" class="edge">
<title>ExpressRouter&#45;&gt;ValidateMiddleware</title>
<path fill="none" stroke="black" d="M339.15,-365.55C383.21,-368.27 434.78,-375.89 478.08,-394.5 497.21,-402.72 495.2,-415.7 514.08,-424.5 519.53,-427.04 525.2,-429.35 531,-431.44"/>
<polygon fill="black" stroke="black" points="540.88,-434.75 529.97,-435.84 536.14,-433.16 531.4,-431.57 531.4,-431.57 531.4,-431.57 536.14,-433.16 532.83,-427.3 540.88,-434.75 540.88,-434.75"/>
</g>
<!-- CheckoutController -->
<g id="node4" class="node">
<title>CheckoutController</title>
<polygon fill="none" stroke="black" points="514.08,-378.5 514.08,-414.5 816.12,-414.5 816.12,-378.5 514.08,-378.5"/>
<text text-anchor="middle" x="576.08" y="-393.5" font-family="Courier New" font-size="10.00">CheckoutController</text>
<polyline fill="none" stroke="black" points="638.09,-378.5 638.09,-414.5 "/>
<text text-anchor="start" x="646.09" y="-393.5" font-family="Courier New" font-size="10.00">+ processCheckout(req, res)</text>
</g>
<!-- ExpressRouter&#45;&gt;CheckoutController -->
<g id="edge3" class="edge">
<title>ExpressRouter&#45;&gt;CheckoutController</title>
<path fill="none" stroke="black" d="M339.19,-373.51C388.16,-376.98 448.46,-381.24 503.77,-385.16"/>
<polygon fill="black" stroke="black" points="514.03,-385.88 503.74,-389.67 509.04,-385.53 504.06,-385.18 504.06,-385.18 504.06,-385.18 509.04,-385.53 504.37,-380.69 514.03,-385.88 514.03,-385.88"/>
</g>
<!-- OrderController -->
<g id="node5" class="node">
<title>OrderController</title>
<polygon fill="none" stroke="black" points="517.08,-315.5 517.08,-359.5 813.12,-359.5 813.12,-315.5 517.08,-315.5"/>
<text text-anchor="middle" x="570.08" y="-334.5" font-family="Courier New" font-size="10.00">OrderController</text>
<polyline fill="none" stroke="black" points="623.09,-315.5 623.09,-359.5 "/>
<text text-anchor="start" x="631.09" y="-346.5" font-family="Courier New" font-size="10.00">+ getOrders(req, res)</text>
<text text-anchor="start" x="631.09" y="-334.5" font-family="Courier New" font-size="10.00">+ getOrderById(req, res)</text>
<text text-anchor="start" x="631.09" y="-322.5" font-family="Courier New" font-size="10.00">+ updateOrderStatus(req, res)</text>
</g>
<!-- ExpressRouter&#45;&gt;OrderController -->
<g id="edge4" class="edge">
<title>ExpressRouter&#45;&gt;OrderController</title>
<path fill="none" stroke="black" d="M339.19,-359.72C389.07,-356.31 450.71,-352.09 506.84,-348.25"/>
<polygon fill="black" stroke="black" points="516.89,-347.57 507.22,-352.74 511.9,-347.91 506.92,-348.25 506.92,-348.25 506.92,-348.25 511.9,-347.91 506.61,-343.76 516.89,-347.57 516.89,-347.57"/>
</g>
<!-- ProductController -->
<g id="node6" class="node">
<title>ProductController</title>
<polygon fill="none" stroke="black" points="523.08,-252.5 523.08,-296.5 807.12,-296.5 807.12,-252.5 523.08,-252.5"/>
<text text-anchor="middle" x="582.08" y="-271.5" font-family="Courier New" font-size="10.00">ProductController</text>
<polyline fill="none" stroke="black" points="641.09,-252.5 641.09,-296.5 "/>
<text text-anchor="start" x="649.09" y="-283.5" font-family="Courier New" font-size="10.00">+ getProducts(req, res)</text>
<text text-anchor="start" x="649.09" y="-271.5" font-family="Courier New" font-size="10.00">+ createProduct(req, res)</text>
<text text-anchor="start" x="649.09" y="-259.5" font-family="Courier New" font-size="10.00">+ uploadImage(req, res)</text>
</g>
<!-- ExpressRouter&#45;&gt;ProductController -->
<g id="edge5" class="edge">
<title>ExpressRouter&#45;&gt;ProductController</title>
<path fill="none" stroke="black" d="M321.85,-348.47C376.31,-336.49 449.45,-320.47 514.08,-306.5 525.89,-303.95 538.22,-301.29 550.53,-298.66"/>
<polygon fill="black" stroke="black" points="560.38,-296.55 551.54,-303.04 555.49,-297.59 550.6,-298.64 550.6,-298.64 550.6,-298.64 555.49,-297.59 549.66,-294.24 560.38,-296.55 560.38,-296.55"/>
</g>
<!-- AdminController -->
<g id="node7" class="node">
<title>AdminController</title>
<polygon fill="none" stroke="black" points="523.08,-160.5 523.08,-204.5 807.12,-204.5 807.12,-160.5 523.08,-160.5"/>
<text text-anchor="middle" x="576.08" y="-179.5" font-family="Courier New" font-size="10.00">AdminController</text>
<polyline fill="none" stroke="black" points="629.09,-160.5 629.09,-204.5 "/>
<text text-anchor="start" x="637.09" y="-191.5" font-family="Courier New" font-size="10.00">+ getUsers(req, res)</text>
<text text-anchor="start" x="637.09" y="-179.5" font-family="Courier New" font-size="10.00">+ getAnalytics(req, res)</text>
<text text-anchor="start" x="637.09" y="-167.5" font-family="Courier New" font-size="10.00">+ moderateProduct(req, res)</text>
</g>
<!-- ExpressRouter&#45;&gt;AdminController -->
<g id="edge6" class="edge">
<title>ExpressRouter&#45;&gt;AdminController</title>
<path fill="none" stroke="black" d="M279.32,-348.34C332.36,-323.94 429.92,-279.48 514.08,-243.5 541.7,-231.69 572.41,-219.11 598.81,-208.46"/>
<polygon fill="black" stroke="black" points="608.33,-204.63 600.73,-212.53 603.69,-206.49 599.05,-208.36 599.05,-208.36 599.05,-208.36 603.69,-206.49 597.37,-204.18 608.33,-204.63 608.33,-204.63"/>
</g>
<!-- CheckoutService -->
<g id="node8" class="node">
<title>CheckoutService</title>
<polygon fill="none" stroke="black" points="855.12,-378.5 855.12,-414.5 1187.17,-414.5 1187.17,-378.5 855.12,-378.5"/>
<text text-anchor="middle" x="908.13" y="-393.5" font-family="Courier New" font-size="10.00">CheckoutService</text>
<polyline fill="none" stroke="black" points="961.13,-378.5 961.13,-414.5 "/>
<text text-anchor="start" x="969.13" y="-393.5" font-family="Courier New" font-size="10.00">+ processCheckout(buyerId, payload)</text>
</g>
<!-- CheckoutController&#45;&gt;CheckoutService -->
<g id="edge7" class="edge">
<title>CheckoutController&#45;&gt;CheckoutService</title>
<path fill="none" stroke="black" d="M816.24,-396.5C825.76,-396.5 835.37,-396.5 844.98,-396.5"/>
<polygon fill="black" stroke="black" points="854.99,-396.5 844.99,-401 849.99,-396.5 844.99,-396.5 844.99,-396.5 844.99,-396.5 849.99,-396.5 844.99,-392 854.99,-396.5 854.99,-396.5"/>
</g>
<!-- OrderService -->
<g id="node9" class="node">
<title>OrderService</title>
<polygon fill="none" stroke="black" points="855.12,-315.5 855.12,-359.5 1187.17,-359.5 1187.17,-315.5 855.12,-315.5"/>
<text text-anchor="middle" x="899.13" y="-334.5" font-family="Courier New" font-size="10.00">OrderService</text>
<polyline fill="none" stroke="black" points="943.13,-315.5 943.13,-359.5 "/>
<text text-anchor="start" x="951.13" y="-346.5" font-family="Courier New" font-size="10.00">+ getOrders(query)</text>
<text text-anchor="start" x="951.13" y="-334.5" font-family="Courier New" font-size="10.00">+ getOrderById(id)</text>
<text text-anchor="start" x="951.13" y="-322.5" font-family="Courier New" font-size="10.00">+ updateOrderStatus(id, status, actor)</text>
</g>
<!-- OrderController&#45;&gt;OrderService -->
<g id="edge8" class="edge">
<title>OrderController&#45;&gt;OrderService</title>
<path fill="none" stroke="black" d="M813.17,-337.5C823.61,-337.5 834.19,-337.5 844.76,-337.5"/>
<polygon fill="black" stroke="black" points="854.89,-337.5 844.89,-342 849.89,-337.5 844.89,-337.5 844.89,-337.5 844.89,-337.5 849.89,-337.5 844.89,-333 854.89,-337.5 854.89,-337.5"/>
</g>
<!-- ProductService -->
<g id="node10" class="node">
<title>ProductService</title>
<polygon fill="none" stroke="black" points="852.12,-252.5 852.12,-296.5 1190.17,-296.5 1190.17,-252.5 852.12,-252.5"/>
<text text-anchor="middle" x="902.13" y="-271.5" font-family="Courier New" font-size="10.00">ProductService</text>
<polyline fill="none" stroke="black" points="952.13,-252.5 952.13,-296.5 "/>
<text text-anchor="start" x="960.13" y="-283.5" font-family="Courier New" font-size="10.00">+ getProducts(query)</text>
<text text-anchor="start" x="960.13" y="-271.5" font-family="Courier New" font-size="10.00">+ createProduct(payload)</text>
<text text-anchor="start" x="960.13" y="-259.5" font-family="Courier New" font-size="10.00">+ uploadProductImage(productId, file)</text>
</g>
<!-- ProductController&#45;&gt;ProductService -->
<g id="edge9" class="edge">
<title>ProductController&#45;&gt;ProductService</title>
<path fill="none" stroke="black" d="M807.3,-274.5C818.63,-274.5 830.16,-274.5 841.7,-274.5"/>
<polygon fill="black" stroke="black" points="851.84,-274.5 841.84,-279 846.84,-274.5 841.84,-274.5 841.84,-274.5 841.84,-274.5 846.84,-274.5 841.84,-270 851.84,-274.5 851.84,-274.5"/>
</g>
<!-- AdminServiceDelegator -->
<g id="node15" class="node">
<title>AdminServiceDelegator</title>
<polygon fill="none" stroke="black" points="876.12,-118.5 876.12,-186.5 1166.17,-186.5 1166.17,-118.5 876.12,-118.5"/>
<text text-anchor="start" x="884.12" y="-149.5" font-family="Courier New" font-size="10.00">AdminService (Delegator)</text>
<polyline fill="none" stroke="black" points="1036.15,-118.5 1036.15,-186.5 "/>
<text text-anchor="start" x="1044.15" y="-173.5" font-family="Courier New" font-size="10.00">+ getUsers()</text>
<text text-anchor="start" x="1044.15" y="-161.5" font-family="Courier New" font-size="10.00">+ getUserById()</text>
<text text-anchor="start" x="1044.15" y="-149.5" font-family="Courier New" font-size="10.00">+ getAnalytics()</text>
<text text-anchor="start" x="1044.15" y="-137.5" font-family="Courier New" font-size="10.00">+ moderateProduct()</text>
<text text-anchor="start" x="1044.15" y="-125.5" font-family="Courier New" font-size="10.00">+ ...</text>
</g>
<!-- AdminController&#45;&gt;AdminServiceDelegator -->
<g id="edge10" class="edge">
<title>AdminController&#45;&gt;AdminServiceDelegator</title>
<path fill="none" stroke="black" d="M807.3,-170.54C826.58,-168.9 846.46,-167.22 865.96,-165.57"/>
<polygon fill="black" stroke="black" points="876.11,-164.7 866.53,-170.03 871.13,-165.13 866.15,-165.55 866.15,-165.55 866.15,-165.55 871.13,-165.13 865.77,-161.06 876.11,-164.7 876.11,-164.7"/>
</g>
<!-- IUserRepository -->
<g id="node16" class="node">
<title>IUserRepository</title>
<polygon fill="none" stroke="black" points="1280.18,-437.5 1280.18,-493.5 1600.22,-493.5 1600.22,-437.5 1280.18,-437.5"/>
<text text-anchor="start" x="1288.18" y="-468.5" font-family="Courier New" font-size="10.00">&lt;&lt;interface&gt;&gt;</text>
<text text-anchor="middle" x="1333.19" y="-456.5" font-family="Courier New" font-size="10.00">IUserRepository</text>
<polyline fill="none" stroke="black" points="1386.19,-437.5 1386.19,-493.5 "/>
<text text-anchor="start" x="1394.19" y="-480.5" font-family="Courier New" font-size="10.00">+ findByEmail(email)</text>
<text text-anchor="start" x="1394.19" y="-468.5" font-family="Courier New" font-size="10.00">+ findById(id)</text>
<text text-anchor="start" x="1394.19" y="-456.5" font-family="Courier New" font-size="10.00">+ create(name, email, pass, role)</text>
<text text-anchor="start" x="1394.19" y="-444.5" font-family="Courier New" font-size="10.00">+ ...</text>
</g>
<!-- CheckoutService&#45;&gt;IUserRepository -->
<g id="edge15" class="edge">
<title>CheckoutService&#45;&gt;IUserRepository</title>
<path fill="none" stroke="green" d="M1131.18,-414.54C1173.65,-421.57 1223.32,-429.78 1270.21,-437.54"/>
<polygon fill="green" stroke="green" points="1280.17,-439.19 1269.57,-442 1275.24,-438.37 1270.31,-437.56 1270.31,-437.56 1270.31,-437.56 1275.24,-438.37 1271.04,-433.12 1280.17,-439.19 1280.17,-439.19"/>
</g>
<!-- OrderConstants -->
<g id="node20" class="node">
<title>OrderConstants</title>
<polygon fill="none" stroke="black" points="1322.18,-374.5 1322.18,-418.5 1558.22,-418.5 1558.22,-374.5 1322.18,-374.5"/>
<text text-anchor="middle" x="1372.19" y="-393.5" font-family="Courier New" font-size="10.00">OrderConstants</text>
<polyline fill="none" stroke="black" points="1422.2,-374.5 1422.2,-418.5 "/>
<text text-anchor="start" x="1430.2" y="-405.5" font-family="Courier New" font-size="10.00">+ ORDER_STATUS</text>
<text text-anchor="start" x="1430.2" y="-393.5" font-family="Courier New" font-size="10.00">+ PAID_STATUSES</text>
<text text-anchor="start" x="1430.2" y="-381.5" font-family="Courier New" font-size="10.00">+ ROLE_STATUS_POLICY</text>
</g>
<!-- CheckoutService&#45;&gt;OrderConstants -->
<g id="edge16" class="edge">
<title>CheckoutService&#45;&gt;OrderConstants</title>
<path fill="none" stroke="black" d="M1187.28,-396.5C1228.72,-396.5 1272.56,-396.5 1311.85,-396.5"/>
<polygon fill="black" stroke="black" points="1322,-396.5 1312,-401 1317,-396.5 1312,-396.5 1312,-396.5 1312,-396.5 1317,-396.5 1312,-392 1322,-396.5 1322,-396.5"/>
</g>
<!-- AppError -->
<g id="node21" class="node">
<title>AppError</title>
<polygon fill="none" stroke="black" points="1349.19,-311.5 1349.19,-355.5 1531.21,-355.5 1531.21,-311.5 1349.19,-311.5"/>
<text text-anchor="middle" x="1381.19" y="-330.5" font-family="Courier New" font-size="10.00">AppError</text>
<polyline fill="none" stroke="black" points="1413.2,-311.5 1413.2,-355.5 "/>
<text text-anchor="start" x="1421.2" y="-342.5" font-family="Courier New" font-size="10.00">+ status: number</text>
<text text-anchor="start" x="1421.2" y="-330.5" font-family="Courier New" font-size="10.00">+ code: string</text>
<text text-anchor="start" x="1421.2" y="-318.5" font-family="Courier New" font-size="10.00">+ message: string</text>
</g>
<!-- CheckoutService&#45;&gt;AppError -->
<g id="edge17" class="edge">
<title>CheckoutService&#45;&gt;AppError</title>
<path fill="none" stroke="black" d="M1140.54,-378.48C1168.61,-374.21 1198.45,-369.69 1226.17,-365.5 1263.01,-359.93 1303.45,-353.85 1339.09,-348.5"/>
<polygon fill="black" stroke="black" points="1349.01,-347.01 1339.79,-352.95 1344.07,-347.75 1339.13,-348.5 1339.13,-348.5 1339.13,-348.5 1344.07,-347.75 1338.46,-344.05 1349.01,-347.01 1349.01,-347.01"/>
</g>
<!-- IStorageAdapter -->
<g id="node18" class="node">
<title>IStorageAdapter</title>
<polygon fill="none" stroke="black" points="1259.17,-256.5 1259.17,-292.5 1621.23,-292.5 1621.23,-256.5 1259.17,-256.5"/>
<text text-anchor="start" x="1267.17" y="-277.5" font-family="Courier New" font-size="10.00">&lt;&lt;interface&gt;&gt;</text>
<text text-anchor="middle" x="1312.18" y="-265.5" font-family="Courier New" font-size="10.00">IStorageAdapter</text>
<polyline fill="none" stroke="black" points="1365.19,-256.5 1365.19,-292.5 "/>
<text text-anchor="start" x="1373.19" y="-271.5" font-family="Courier New" font-size="10.00">+ saveUploadedFile(bucket, folder, file)</text>
</g>
<!-- ProductService&#45;&gt;IStorageAdapter -->
<g id="edge18" class="edge">
<title>ProductService&#45;&gt;IStorageAdapter</title>
<path fill="none" stroke="green" d="M1190.27,-274.5C1209.54,-274.5 1229.28,-274.5 1248.81,-274.5"/>
<polygon fill="green" stroke="green" points="1259,-274.5 1249,-279 1254,-274.5 1249,-274.5 1249,-274.5 1249,-274.5 1254,-274.5 1249,-270 1259,-274.5 1259,-274.5"/>
</g>
<!-- AdminUserService -->
<g id="node11" class="node">
<title>AdminUserService</title>
<polygon fill="none" stroke="black" points="1280.18,-193.5 1280.18,-237.5 1600.22,-237.5 1600.22,-193.5 1280.18,-193.5"/>
<text text-anchor="middle" x="1336.19" y="-212.5" font-family="Courier New" font-size="10.00">AdminUserService</text>
<polyline fill="none" stroke="black" points="1392.19,-193.5 1392.19,-237.5 "/>
<text text-anchor="start" x="1400.19" y="-224.5" font-family="Courier New" font-size="10.00">+ getUsers(query)</text>
<text text-anchor="start" x="1400.19" y="-212.5" font-family="Courier New" font-size="10.00">+ getUserById(id)</text>
<text text-anchor="start" x="1400.19" y="-200.5" font-family="Courier New" font-size="10.00">+ updateUserStatus(id, isActive)</text>
</g>
<!-- AdminModerationService -->
<g id="node12" class="node">
<title>AdminModerationService</title>
<polygon fill="none" stroke="black" points="1226.17,-130.5 1226.17,-174.5 1654.23,-174.5 1654.23,-130.5 1226.17,-130.5"/>
<text text-anchor="middle" x="1300.18" y="-149.5" font-family="Courier New" font-size="10.00">AdminModerationService</text>
<polyline fill="none" stroke="black" points="1374.19,-130.5 1374.19,-174.5 "/>
<text text-anchor="start" x="1382.19" y="-161.5" font-family="Courier New" font-size="10.00">+ getModerationSellers(query)</text>
<text text-anchor="start" x="1382.19" y="-149.5" font-family="Courier New" font-size="10.00">+ getModerationProducts(query)</text>
<text text-anchor="start" x="1382.19" y="-137.5" font-family="Courier New" font-size="10.00">+ moderateProduct(actor, productId, payload)</text>
</g>
<!-- AdminAnalyticsService -->
<g id="node13" class="node">
<title>AdminAnalyticsService</title>
<polygon fill="none" stroke="black" points="1298.18,-75.5 1298.18,-111.5 1582.22,-111.5 1582.22,-75.5 1298.18,-75.5"/>
<text text-anchor="middle" x="1369.19" y="-90.5" font-family="Courier New" font-size="10.00">AdminAnalyticsService</text>
<polyline fill="none" stroke="black" points="1440.2,-75.5 1440.2,-111.5 "/>
<text text-anchor="start" x="1448.2" y="-90.5" font-family="Courier New" font-size="10.00">+ getAnalytics(query)</text>
</g>
<!-- AdminReportService -->
<g id="node14" class="node">
<title>AdminReportService</title>
<polygon fill="none" stroke="black" points="1286.18,-0.5 1286.18,-56.5 1594.22,-56.5 1594.22,-0.5 1286.18,-0.5"/>
<text text-anchor="middle" x="1348.19" y="-25.5" font-family="Courier New" font-size="10.00">AdminReportService</text>
<polyline fill="none" stroke="black" points="1410.2,-0.5 1410.2,-56.5 "/>
<text text-anchor="start" x="1418.2" y="-43.5" font-family="Courier New" font-size="10.00">+ getAuditLogs(query)</text>
<text text-anchor="start" x="1418.2" y="-31.5" font-family="Courier New" font-size="10.00">+ previewReport(query)</text>
<text text-anchor="start" x="1418.2" y="-19.5" font-family="Courier New" font-size="10.00">+ exportReport(actor, query)</text>
<text text-anchor="start" x="1418.2" y="-7.5" font-family="Courier New" font-size="10.00">+ simulateFeeImpact(query)</text>
</g>
<!-- AdminServiceDelegator&#45;&gt;AdminUserService -->
<g id="edge11" class="edge">
<title>AdminServiceDelegator&#45;&gt;AdminUserService</title>
<path fill="none" stroke="black" d="M1166.18,-175.29C1186.32,-178.42 1206.76,-181.57 1226.17,-184.5 1242.46,-186.96 1259.47,-189.5 1276.45,-192.01"/>
<polygon fill="black" stroke="black" points="1286.44,-193.48 1275.89,-196.47 1281.49,-192.75 1276.55,-192.02 1276.55,-192.02 1276.55,-192.02 1281.49,-192.75 1277.2,-187.57 1286.44,-193.48 1286.44,-193.48"/>
</g>
<!-- AdminServiceDelegator&#45;&gt;AdminModerationService -->
<g id="edge12" class="edge">
<title>AdminServiceDelegator&#45;&gt;AdminModerationService</title>
<path fill="none" stroke="black" d="M1166.26,-152.5C1182.24,-152.5 1198.79,-152.5 1215.47,-152.5"/>
<polygon fill="black" stroke="black" points="1225.87,-152.5 1215.87,-157 1220.87,-152.5 1215.87,-152.5 1215.87,-152.5 1215.87,-152.5 1220.87,-152.5 1215.87,-148 1225.87,-152.5 1225.87,-152.5"/>
</g>
<!-- AdminServiceDelegator&#45;&gt;AdminAnalyticsService -->
<g id="edge13" class="edge">
<title>AdminServiceDelegator&#45;&gt;AdminAnalyticsService</title>
<path fill="none" stroke="black" d="M1166.43,-130.21C1186.49,-127.22 1206.84,-124.24 1226.17,-121.5 1246.5,-118.62 1267.93,-115.68 1289.05,-112.85"/>
<polygon fill="black" stroke="black" points="1299.06,-111.51 1289.74,-117.3 1294.1,-112.17 1289.15,-112.84 1289.15,-112.84 1289.15,-112.84 1294.1,-112.17 1288.55,-108.38 1299.06,-111.51 1299.06,-111.51"/>
</g>
<!-- AdminServiceDelegator&#45;&gt;AdminReportService -->
<g id="edge14" class="edge">
<title>AdminServiceDelegator&#45;&gt;AdminReportService</title>
<path fill="none" stroke="black" d="M1092.01,-118.49C1130.77,-100.79 1180.28,-80.08 1226.17,-66.5 1242.2,-61.75 1259.1,-57.51 1276.08,-53.74"/>
<polygon fill="black" stroke="black" points="1286.08,-51.57 1277.26,-58.09 1281.2,-52.63 1276.31,-53.69 1276.31,-53.69 1276.31,-53.69 1281.2,-52.63 1275.36,-49.29 1286.08,-51.57 1286.08,-51.57"/>
</g>
<!-- MySQLUserRepository -->
<g id="node17" class="node">
<title>MySQLUserRepository</title>
<polygon fill="none" stroke="black" points="106.02,-403.5 106.02,-459.5 372.06,-459.5 372.06,-403.5 106.02,-403.5"/>
<text text-anchor="middle" x="171.03" y="-428.5" font-family="Courier New" font-size="10.00">MySQLUserRepository</text>
<polyline fill="none" stroke="black" points="236.04,-403.5 236.04,-459.5 "/>
<text text-anchor="start" x="244.04" y="-446.5" font-family="Courier New" font-size="10.00">&#45; pool</text>
<text text-anchor="start" x="244.04" y="-434.5" font-family="Courier New" font-size="10.00">+ findByEmail(email)</text>
<text text-anchor="start" x="244.04" y="-422.5" font-family="Courier New" font-size="10.00">+ findById(id)</text>
<text text-anchor="start" x="244.04" y="-410.5" font-family="Courier New" font-size="10.00">+ create()</text>
</g>
<!-- LocalStorageAdapter -->
<g id="node19" class="node">
<title>LocalStorageAdapter</title>
<polygon fill="none" stroke="black" points="46.01,-478.5 46.01,-514.5 432.07,-514.5 432.07,-478.5 46.01,-478.5"/>
<text text-anchor="middle" x="111.02" y="-493.5" font-family="Courier New" font-size="10.00">LocalStorageAdapter</text>
<polyline fill="none" stroke="black" points="176.03,-478.5 176.03,-514.5 "/>
<text text-anchor="start" x="184.03" y="-493.5" font-family="Courier New" font-size="10.00">+ saveUploadedFile(bucket, folder, file)</text>
</g>
<!-- |.. LocalStorageAdapter [style=dashed, arrowhead=empty];
 &#160;&#160;&#160;IUserRepository &lt;|.. MySQLUserRepository [style=dashed, arrowhead=empty];

 &#160;&#160;&#160;AdminModerationService &#45;&gt; AppError;
 &#160;&#160;&#160;AdminReportService &#45; -->
<g id="node22" class="node">
<title>|.. LocalStorageAdapter [style=dashed, arrowhead=empty];
 &#160;&#160;&#160;IUserRepository &lt;|.. MySQLUserRepository [style=dashed, arrowhead=empty];

 &#160;&#160;&#160;AdminModerationService &#45;&gt; AppError;
 &#160;&#160;&#160;AdminReportService &#45;</title>
<polygon fill="none" stroke="black" points="0,-533.5 0,-601.5 478.08,-601.5 478.08,-533.5 0,-533.5"/>
<text text-anchor="middle" x="239.04" y="-588.5" font-family="Courier New" font-size="10.00">|.. LocalStorageAdapter [style=dashed, arrowhead=empty];</text>
<text text-anchor="middle" x="239.04" y="-576.5" font-family="Courier New" font-size="10.00"> &#160;&#160;&#160;IUserRepository &lt;|.. MySQLUserRepository [style=dashed, arrowhead=empty];</text>
<text text-anchor="middle" x="239.04" y="-552.5" font-family="Courier New" font-size="10.00"> &#160;&#160;&#160;AdminModerationService &#45;&gt; AppError;</text>
<text text-anchor="middle" x="239.04" y="-540.5" font-family="Courier New" font-size="10.00"> &#160;&#160;&#160;AdminReportService &#45;</text>
</g>
</g>
</svg>
