<?xml version="1.0" encoding="UTF-8" standalone="no"?>
<!DOCTYPE svg PUBLIC "-//W3C//DTD SVG 1.1//EN"
 "http://www.w3.org/Graphics/SVG/1.1/DTD/svg11.dtd">
<!-- Generated by graphviz version 5.0.0 (20220707.1540)
 -->
<!-- Title: ClassDiagramSebelum Pages: 1 -->
<svg width="1353pt" height="364pt"
 viewBox="0.00 0.00 1353.22 364.00" xmlns="http://www.w3.org/2000/svg" xmlns:xlink="http://www.w3.org/1999/xlink">
<g id="graph0" class="graph" transform="scale(1 1) rotate(0) translate(4 360)">
<title>ClassDiagramSebelum</title>
<polygon fill="white" stroke="transparent" points="-4,4 -4,-360 1349.22,-360 1349.22,4 -4,4"/>
<!-- ExpressRouter -->
<g id="node1" class="node">
<title>ExpressRouter</title>
<polygon fill="none" stroke="black" points="0,-162.5 0,-198.5 200.03,-198.5 200.03,-162.5 0,-162.5"/>
<text text-anchor="middle" x="47.01" y="-177.5" font-family="Courier New" font-size="10.00">ExpressRouter</text>
<polyline fill="none" stroke="black" points="94.01,-162.5 94.01,-198.5 "/>
<text text-anchor="start" x="102.01" y="-177.5" font-family="Courier New" font-size="10.00">+ mountRoutes()</text>
</g>
<!-- AuthMiddleware -->
<g id="node2" class="node">
<title>AuthMiddleware</title>
<polygon fill="none" stroke="black" points="267.03,-299.5 267.03,-355.5 509.07,-355.5 509.07,-299.5 267.03,-299.5"/>
<text text-anchor="middle" x="317.04" y="-324.5" font-family="Courier New" font-size="10.00">AuthMiddleware</text>
<polyline fill="none" stroke="black" points="367.05,-299.5 367.05,-355.5 "/>
<text text-anchor="start" x="375.05" y="-342.5" font-family="Courier New" font-size="10.00">+ verifyToken()</text>
<text text-anchor="start" x="375.05" y="-330.5" font-family="Courier New" font-size="10.00">+ requireRole()</text>
<text text-anchor="start" x="375.05" y="-318.5" font-family="Courier New" font-size="10.00">+ requireSuperadmin()</text>
<text text-anchor="start" x="375.05" y="-306.5" font-family="Courier New" font-size="10.00">+ requireSeller()</text>
</g>
<!-- ExpressRouter&#45;&gt;AuthMiddleware -->
<g id="edge1" class="edge">
<title>ExpressRouter&#45;&gt;AuthMiddleware</title>
<path fill="none" stroke="black" d="M118.12,-198.63C142.29,-223.16 188.88,-266.59 237.03,-290.5 243.55,-293.74 250.38,-296.71 257.38,-299.43"/>
<polygon fill="black" stroke="black" points="267,-302.98 256.06,-303.74 262.31,-301.25 257.62,-299.52 257.62,-299.52 257.62,-299.52 262.31,-301.25 259.18,-295.3 267,-302.98 267,-302.98"/>
</g>
<!-- ValidateMiddleware -->
<g id="node3" class="node">
<title>ValidateMiddleware</title>
<polygon fill="none" stroke="black" points="264.03,-244.5 264.03,-280.5 512.07,-280.5 512.07,-244.5 264.03,-244.5"/>
<text text-anchor="middle" x="326.04" y="-259.5" font-family="Courier New" font-size="10.00">ValidateMiddleware</text>
<polyline fill="none" stroke="black" points="388.05,-244.5 388.05,-280.5 "/>
<text text-anchor="start" x="396.05" y="-259.5" font-family="Courier New" font-size="10.00">+ validate(schema)</text>
</g>
<!-- ExpressRouter&#45;&gt;ValidateMiddleware -->
<g id="edge2" class="edge">
<title>ExpressRouter&#45;&gt;ValidateMiddleware</title>
<path fill="none" stroke="black" d="M139.54,-198.57C166.37,-210.53 203.26,-225.75 237.03,-235.5 245.34,-237.9 253.98,-240.13 262.72,-242.19"/>
<polygon fill="black" stroke="black" points="272.62,-244.44 261.87,-246.61 267.75,-243.33 262.87,-242.22 262.87,-242.22 262.87,-242.22 267.75,-243.33 263.87,-237.84 272.62,-244.44 272.62,-244.44"/>
</g>
<!-- CheckoutController -->
<g id="node4" class="node">
<title>CheckoutController</title>
<polygon fill="none" stroke="black" points="237.03,-126.5 237.03,-162.5 539.07,-162.5 539.07,-126.5 237.03,-126.5"/>
<text text-anchor="middle" x="299.04" y="-141.5" font-family="Courier New" font-size="10.00">CheckoutController</text>
<polyline fill="none" stroke="black" points="361.04,-126.5 361.04,-162.5 "/>
<text text-anchor="start" x="369.04" y="-141.5" font-family="Courier New" font-size="10.00">+ processCheckout(req, res)</text>
</g>
<!-- ExpressRouter&#45;&gt;CheckoutController -->
<g id="edge3" class="edge">
<title>ExpressRouter&#45;&gt;CheckoutController</title>
<path fill="none" stroke="black" d="M200.25,-168.01C211.17,-166.64 222.47,-165.21 233.85,-163.78"/>
<polygon fill="black" stroke="black" points="243.87,-162.52 234.51,-168.23 238.91,-163.14 233.95,-163.77 233.95,-163.77 233.95,-163.77 238.91,-163.14 233.39,-159.3 243.87,-162.52 243.87,-162.52"/>
</g>
<!-- OrderController -->
<g id="node5" class="node">
<title>OrderController</title>
<polygon fill="none" stroke="black" points="240.03,-63.5 240.03,-107.5 536.07,-107.5 536.07,-63.5 240.03,-63.5"/>
<text text-anchor="middle" x="293.04" y="-82.5" font-family="Courier New" font-size="10.00">OrderController</text>
<polyline fill="none" stroke="black" points="346.04,-63.5 346.04,-107.5 "/>
<text text-anchor="start" x="354.04" y="-94.5" font-family="Courier New" font-size="10.00">+ getOrders(req, res)</text>
<text text-anchor="start" x="354.04" y="-82.5" font-family="Courier New" font-size="10.00">+ getOrderById(req, res)</text>
<text text-anchor="start" x="354.04" y="-70.5" font-family="Courier New" font-size="10.00">+ updateOrderStatus(req, res)</text>
</g>
<!-- ExpressRouter&#45;&gt;OrderController -->
<g id="edge4" class="edge">
<title>ExpressRouter&#45;&gt;OrderController</title>
<path fill="none" stroke="black" d="M133.65,-162.46C160.65,-148.2 200.39,-128.72 237.03,-116.5 243.55,-114.32 250.29,-112.27 257.14,-110.34"/>
<polygon fill="black" stroke="black" points="267.22,-107.59 258.75,-114.56 262.4,-108.91 257.57,-110.22 257.57,-110.22 257.57,-110.22 262.4,-108.91 256.39,-105.88 267.22,-107.59 267.22,-107.59"/>
</g>
<!-- ProductController -->
<g id="node6" class="node">
<title>ProductController</title>
<polygon fill="none" stroke="black" points="246.03,-0.5 246.03,-44.5 530.07,-44.5 530.07,-0.5 246.03,-0.5"/>
<text text-anchor="middle" x="305.04" y="-19.5" font-family="Courier New" font-size="10.00">ProductController</text>
<polyline fill="none" stroke="black" points="364.05,-0.5 364.05,-44.5 "/>
<text text-anchor="start" x="372.05" y="-31.5" font-family="Courier New" font-size="10.00">+ getProducts(req, res)</text>
<text text-anchor="start" x="372.05" y="-19.5" font-family="Courier New" font-size="10.00">+ createProduct(req, res)</text>
<text text-anchor="start" x="372.05" y="-7.5" font-family="Courier New" font-size="10.00">+ uploadImage(req, res)</text>
</g>
<!-- ExpressRouter&#45;&gt;ProductController -->
<g id="edge5" class="edge">
<title>ExpressRouter&#45;&gt;ProductController</title>
<path fill="none" stroke="black" d="M114.71,-162.5C137.06,-134.47 184.23,-80.82 237.03,-53.5 240.42,-51.75 243.9,-50.09 247.44,-48.53"/>
<polygon fill="black" stroke="black" points="256.99,-44.62 249.45,-52.58 252.37,-46.51 247.74,-48.41 247.74,-48.41 247.74,-48.41 252.37,-46.51 246.03,-44.25 256.99,-44.62 256.99,-44.62"/>
</g>
<!-- AdminController -->
<g id="node7" class="node">
<title>AdminController</title>
<polygon fill="none" stroke="black" points="246.03,-181.5 246.03,-225.5 530.07,-225.5 530.07,-181.5 246.03,-181.5"/>
<text text-anchor="middle" x="299.04" y="-200.5" font-family="Courier New" font-size="10.00">AdminController</text>
<polyline fill="none" stroke="black" points="352.04,-181.5 352.04,-225.5 "/>
<text text-anchor="start" x="360.04" y="-212.5" font-family="Courier New" font-size="10.00">+ getUsers(req, res)</text>
<text text-anchor="start" x="360.04" y="-200.5" font-family="Courier New" font-size="10.00">+ getAnalytics(req, res)</text>
<text text-anchor="start" x="360.04" y="-188.5" font-family="Courier New" font-size="10.00">+ moderateProduct(req, res)</text>
</g>
<!-- ExpressRouter&#45;&gt;AdminController -->
<g id="edge6" class="edge">
<title>ExpressRouter&#45;&gt;AdminController</title>
<path fill="none" stroke="black" d="M200.25,-188.48C211.79,-189.41 223.74,-190.37 235.77,-191.34"/>
<polygon fill="black" stroke="black" points="245.89,-192.15 235.56,-195.83 240.91,-191.75 235.93,-191.35 235.93,-191.35 235.93,-191.35 240.91,-191.75 236.29,-186.86 245.89,-192.15 245.89,-192.15"/>
</g>
<!-- CheckoutService -->
<g id="node8" class="node">
<title>CheckoutService</title>
<polygon fill="none" stroke="black" points="576.07,-126.5 576.07,-162.5 944.13,-162.5 944.13,-126.5 576.07,-126.5"/>
<text text-anchor="middle" x="629.08" y="-141.5" font-family="Courier New" font-size="10.00">CheckoutService</text>
<polyline fill="none" stroke="black" points="682.09,-126.5 682.09,-162.5 "/>
<text text-anchor="start" x="690.09" y="-147.5" font-family="Courier New" font-size="10.00">+ processLegacyCheckout(buyerId, payload)</text>
<text text-anchor="start" x="690.09" y="-135.5" font-family="Courier New" font-size="10.00">+ processCheckout(buyerId, payload)</text>
</g>
<!-- CheckoutController&#45;&gt;CheckoutService -->
<g id="edge7" class="edge">
<title>CheckoutController&#45;&gt;CheckoutService</title>
<path fill="none" stroke="black" d="M539.3,-144.5C548.1,-144.5 557.01,-144.5 565.94,-144.5"/>
<polygon fill="black" stroke="black" points="576.04,-144.5 566.04,-149 571.04,-144.5 566.04,-144.5 566.04,-144.5 566.04,-144.5 571.04,-144.5 566.04,-140 576.04,-144.5 576.04,-144.5"/>
</g>
<!-- OrderService -->
<g id="node9" class="node">
<title>OrderService</title>
<polygon fill="none" stroke="black" points="594.07,-63.5 594.07,-107.5 926.12,-107.5 926.12,-63.5 594.07,-63.5"/>
<text text-anchor="middle" x="638.08" y="-82.5" font-family="Courier New" font-size="10.00">OrderService</text>
<polyline fill="none" stroke="black" points="682.09,-63.5 682.09,-107.5 "/>
<text text-anchor="start" x="690.09" y="-94.5" font-family="Courier New" font-size="10.00">+ getOrders(query)</text>
<text text-anchor="start" x="690.09" y="-82.5" font-family="Courier New" font-size="10.00">+ getOrderById(id)</text>
<text text-anchor="start" x="690.09" y="-70.5" font-family="Courier New" font-size="10.00">+ updateOrderStatus(id, status, actor)</text>
</g>
<!-- OrderController&#45;&gt;OrderService -->
<g id="edge8" class="edge">
<title>OrderController&#45;&gt;OrderService</title>
<path fill="none" stroke="black" d="M536.1,-85.5C551.65,-85.5 567.58,-85.5 583.41,-85.5"/>
<polygon fill="black" stroke="black" points="593.8,-85.5 583.8,-90 588.8,-85.5 583.8,-85.5 583.8,-85.5 583.8,-85.5 588.8,-85.5 583.8,-81 593.8,-85.5 593.8,-85.5"/>
</g>
<!-- ProductService -->
<g id="node10" class="node">
<title>ProductService</title>
<polygon fill="none" stroke="black" points="591.07,-0.5 591.07,-44.5 929.12,-44.5 929.12,-0.5 591.07,-0.5"/>
<text text-anchor="middle" x="641.08" y="-19.5" font-family="Courier New" font-size="10.00">ProductService</text>
<polyline fill="none" stroke="black" points="691.09,-0.5 691.09,-44.5 "/>
<text text-anchor="start" x="699.09" y="-31.5" font-family="Courier New" font-size="10.00">+ getProducts(query)</text>
<text text-anchor="start" x="699.09" y="-19.5" font-family="Courier New" font-size="10.00">+ createProduct(payload)</text>
<text text-anchor="start" x="699.09" y="-7.5" font-family="Courier New" font-size="10.00">+ uploadProductImage(productId, file)</text>
</g>
<!-- ProductController&#45;&gt;ProductService -->
<g id="edge9" class="edge">
<title>ProductController&#45;&gt;ProductService</title>
<path fill="none" stroke="black" d="M530.27,-22.5C546.67,-22.5 563.55,-22.5 580.37,-22.5"/>
<polygon fill="black" stroke="black" points="590.83,-22.5 580.83,-27 585.83,-22.5 580.83,-22.5 580.83,-22.5 580.83,-22.5 585.83,-22.5 580.83,-18 590.83,-22.5 590.83,-22.5"/>
</g>
<!-- AdminService -->
<g id="node11" class="node">
<title>AdminService</title>
<polygon fill="none" stroke="black" points="576.07,-181.5 576.07,-249.5 944.13,-249.5 944.13,-181.5 576.07,-181.5"/>
<text text-anchor="middle" x="620.08" y="-212.5" font-family="Courier New" font-size="10.00">AdminService</text>
<polyline fill="none" stroke="black" points="664.08,-181.5 664.08,-249.5 "/>
<text text-anchor="start" x="672.08" y="-236.5" font-family="Courier New" font-size="10.00">+ getUsers(query)</text>
<text text-anchor="start" x="672.08" y="-224.5" font-family="Courier New" font-size="10.00">+ getUserById(id)</text>
<text text-anchor="start" x="672.08" y="-212.5" font-family="Courier New" font-size="10.00">+ getAnalytics(query)</text>
<text text-anchor="start" x="672.08" y="-200.5" font-family="Courier New" font-size="10.00">+ moderateProduct(actor, productId, payload)</text>
<text text-anchor="start" x="672.08" y="-188.5" font-family="Courier New" font-size="10.00">+ simulateFeeImpact(query)</text>
</g>
<!-- AdminController&#45;&gt;AdminService -->
<g id="edge10" class="edge">
<title>AdminController&#45;&gt;AdminService</title>
<path fill="none" stroke="black" d="M530.27,-208.08C541.91,-208.46 553.8,-208.84 565.73,-209.23"/>
<polygon fill="black" stroke="black" points="575.77,-209.55 565.62,-213.73 570.77,-209.39 565.77,-209.23 565.77,-209.23 565.77,-209.23 570.77,-209.39 565.92,-204.73 575.77,-209.55 575.77,-209.55"/>
</g>
<!-- MySQLPool -->
<g id="node12" class="node">
<title>MySQLPool</title>
<polygon fill="none" stroke="black" points="1115.19,-105.5 1115.19,-141.5 1321.22,-141.5 1321.22,-105.5 1115.19,-105.5"/>
<text text-anchor="middle" x="1150.19" y="-120.5" font-family="Courier New" font-size="10.00">MySQLPool</text>
<polyline fill="none" stroke="black" points="1185.2,-105.5 1185.2,-141.5 "/>
<text text-anchor="start" x="1193.2" y="-120.5" font-family="Courier New" font-size="10.00">+ query(sql, params)</text>
</g>
<!-- CheckoutService&#45;&gt;MySQLPool -->
<g id="edge11" class="edge">
<title>CheckoutService&#45;&gt;MySQLPool</title>
<path fill="none" stroke="black" d="M944.31,-136.06C998.65,-133.56 1056.53,-130.9 1104.94,-128.67"/>
<polygon fill="black" stroke="black" points="1115.12,-128.2 1105.34,-133.16 1110.12,-128.43 1105.13,-128.66 1105.13,-128.66 1105.13,-128.66 1110.12,-128.43 1104.92,-124.17 1115.12,-128.2 1115.12,-128.2"/>
<text text-anchor="middle" x="1017.66" y="-138.2" font-family="Arial" font-size="9.00">Tightly coupled (pool.query)</text>
</g>
<!-- OrderService&#45;&gt;MySQLPool -->
<g id="edge12" class="edge">
<title>OrderService&#45;&gt;MySQLPool</title>
<path fill="none" stroke="black" d="M926.41,-99.27C985.68,-104.21 1051.09,-109.66 1104.84,-114.14"/>
<polygon fill="black" stroke="black" points="1115.08,-114.99 1104.75,-118.65 1110.1,-114.58 1105.12,-114.16 1105.12,-114.16 1105.12,-114.16 1110.1,-114.58 1105.49,-109.68 1115.08,-114.99 1115.08,-114.99"/>
<text text-anchor="middle" x="1017.66" y="-114.2" font-family="Arial" font-size="9.00">Tightly coupled (pool.query)</text>
</g>
<!-- ProductService&#45;&gt;MySQLPool -->
<g id="edge13" class="edge">
<title>ProductService&#45;&gt;MySQLPool</title>
<path fill="none" stroke="black" d="M898.75,-44.55C914.09,-47.38 929.47,-50.39 944.13,-53.5 1011.95,-67.91 1088.35,-87.81 1143.05,-102.71"/>
<polygon fill="black" stroke="black" points="1153,-105.43 1142.17,-107.14 1148.18,-104.11 1143.36,-102.8 1143.36,-102.8 1143.36,-102.8 1148.18,-104.11 1144.54,-98.46 1153,-105.43 1153,-105.43"/>
<text text-anchor="middle" x="1017.66" y="-87.2" font-family="Arial" font-size="9.00">Tightly coupled (pool.query)</text>
</g>
<!-- FileSystem -->
<g id="node13" class="node">
<title>FileSystem</title>
<polygon fill="none" stroke="black" points="1091.18,-4.5 1091.18,-40.5 1345.22,-40.5 1345.22,-4.5 1091.18,-4.5"/>
<text text-anchor="middle" x="1129.19" y="-19.5" font-family="Courier New" font-size="10.00">FileSystem</text>
<polyline fill="none" stroke="black" points="1167.19,-4.5 1167.19,-40.5 "/>
<text text-anchor="start" x="1175.19" y="-25.5" font-family="Courier New" font-size="10.00">+ mkdirSync(path)</text>
<text text-anchor="start" x="1175.19" y="-13.5" font-family="Courier New" font-size="10.00">+ writeFileSync(path, data)</text>
</g>
<!-- ProductService&#45;&gt;FileSystem -->
<g id="edge15" class="edge">
<title>ProductService&#45;&gt;FileSystem</title>
<path fill="none" stroke="black" d="M929.32,-22.5C979.21,-22.5 1033.21,-22.5 1080.82,-22.5"/>
<polygon fill="black" stroke="black" points="1090.88,-22.5 1080.88,-27 1085.88,-22.5 1080.88,-22.5 1080.88,-22.5 1080.88,-22.5 1085.88,-22.5 1080.88,-18 1090.88,-22.5 1090.88,-22.5"/>
<text text-anchor="middle" x="1017.66" y="-25.2" font-family="Arial" font-size="9.00">fs.writeFileSync() langsung</text>
</g>
<!-- AdminService&#45;&gt;MySQLPool -->
<g id="edge14" class="edge">
<title>AdminService&#45;&gt;MySQLPool</title>
<path fill="none" stroke="black" d="M929.96,-181.44C993.12,-168.7 1062.78,-154.65 1117.69,-143.57"/>
<polygon fill="black" stroke="black" points="1127.76,-141.54 1118.85,-147.93 1122.86,-142.53 1117.96,-143.52 1117.96,-143.52 1117.96,-143.52 1122.86,-142.53 1117.07,-139.11 1127.76,-141.54 1127.76,-141.54"/>
<text text-anchor="middle" x="1017.66" y="-175.2" font-family="Arial" font-size="9.00">Tightly coupled (pool.query)</text>
</g>
</g>
</svg>
